<svg width="52" height="52" viewBox="0 0 52 52" fill="none" xmlns="http://www.w3.org/2000/svg">
<g clip-path="url(#clip0_3_382)">
<path d="M17.2691 50.1683C21.7218 50.464 25.5524 47.1105 25.8482 42.6578L26.3825 34.613L18.3377 34.0787C13.885 33.783 10.0543 37.1365 9.75861 41.5892C9.46289 46.0419 12.8164 49.8726 17.2691 50.1683Z" fill="#0ACF83"/>
<path d="M10.8272 25.4996C11.1229 21.0469 14.9536 17.6934 19.4063 17.9891L27.4511 18.5234L26.3825 34.613L18.3377 34.0787C13.885 33.783 10.5315 29.9523 10.8272 25.4996Z" fill="#A259FF"/>
<path d="M11.8958 9.41001C12.1915 4.95732 16.0222 1.6038 20.4749 1.89953L28.5197 2.43382L27.4511 18.5234L19.4063 17.9891C14.9536 17.6934 11.6001 13.8627 11.8958 9.41001Z" fill="#F24E1E"/>
<path d="M28.5197 2.43384L36.5644 2.96813C41.0171 3.26386 44.3706 7.09451 44.0749 11.5472C43.7792 15.9999 39.9485 19.3534 35.4958 19.0577L27.4511 18.5234L28.5197 2.43384Z" fill="#FF7262"/>
<path d="M43.0063 27.6368C42.7106 32.0895 38.8799 35.443 34.4272 35.1473C29.9746 34.8516 26.621 31.0209 26.9168 26.5682C27.2125 22.1155 31.0431 18.762 35.4958 19.0577C39.9485 19.3535 43.302 23.1841 43.0063 27.6368Z" fill="#1ABCFE"/>
</g>
<defs>
<clipPath id="clip0_3_382">
<rect width="48" height="48" fill="white" transform="translate(3.44989 0.768799) rotate(3.79971)"/>
</clipPath>
</defs>
</svg>
