<svg width="33" height="36" viewBox="0 0 33 36" fill="none" xmlns="http://www.w3.org/2000/svg">
<path d="M29.58 12.0001L10.26 0.920052C9.21457 0.316371 8.02799 0.000127989 6.82079 0.00344378C5.61358 0.00675957 4.42876 0.329516 3.38666 0.938931C2.34456 1.54835 1.48231 2.42271 0.887492 3.47321C0.292674 4.52371 -0.0135232 5.71292 2.17644e-06 6.92005V29.1601C2.17644e-06 30.9741 0.720643 32.7139 2.00339 33.9967C3.28614 35.2794 5.02592 36.0001 6.84 36.0001C8.04088 35.998 9.22018 35.6808 10.26 35.0801L29.58 24.0001C30.6181 23.3992 31.48 22.536 32.0792 21.4969C32.6783 20.4579 32.9938 19.2795 32.9938 18.0801C32.9938 16.8806 32.6783 15.7022 32.0792 14.6632C31.48 13.6241 30.6181 12.7609 29.58 12.1601V12.0001ZM27.58 20.3801L8.26 31.6201C7.82697 31.8655 7.33774 31.9945 6.84 31.9945C6.34227 31.9945 5.85303 31.8655 5.42 31.6201C4.9882 31.3707 4.62963 31.0122 4.38037 30.5803C4.1311 30.1485 3.99992 29.6587 4 29.1601V6.84005C3.99992 6.34145 4.1311 5.8516 4.38037 5.41978C4.62963 4.98795 4.9882 4.62936 5.42 4.38005C5.8545 4.13759 6.34248 4.007 6.84 4.00005C7.33707 4.01025 7.82428 4.14063 8.26 4.38005L27.58 15.5401C28.012 15.7892 28.3707 16.1478 28.6201 16.5796C28.8695 17.0115 29.0008 17.5014 29.0008 18.0001C29.0008 18.4987 28.8695 18.9886 28.6201 19.4205C28.3707 19.8523 28.012 20.2109 27.58 20.4601V20.3801Z" fill="white"/>
</svg>
