<svg width="20" height="21" viewBox="0 0 20 21" fill="none" xmlns="http://www.w3.org/2000/svg">
<path d="M8 2.5C6.93913 2.5 5.92172 2.92143 5.17157 3.67157C4.42143 4.42172 4 5.43913 4 6.5C4 7.56087 4.42143 8.57828 5.17157 9.32843C5.92172 10.0786 6.93913 10.5 8 10.5C9.06087 10.5 10.0783 10.0786 10.8284 9.32843C11.5786 8.57828 12 7.56087 12 6.5C12 5.43913 11.5786 4.42172 10.8284 3.67157C10.0783 2.92143 9.06087 2.5 8 2.5ZM2 6.5C2 4.9087 2.63214 3.38258 3.75736 2.25736C4.88258 1.13214 6.4087 0.5 8 0.5C9.5913 0.5 11.1174 1.13214 12.2426 2.25736C13.3679 3.38258 14 4.9087 14 6.5C14 8.0913 13.3679 9.61742 12.2426 10.7426C11.1174 11.8679 9.5913 12.5 8 12.5C6.4087 12.5 4.88258 11.8679 3.75736 10.7426C2.63214 9.61742 2 8.0913 2 6.5ZM14.828 2.257C14.9209 2.16402 15.0312 2.09026 15.1526 2.03994C15.274 1.98962 15.4041 1.96371 15.5355 1.96371C15.6669 1.96371 15.797 1.98962 15.9184 2.03994C16.0398 2.09026 16.1501 2.16402 16.243 2.257C16.8003 2.81416 17.2423 3.47565 17.5439 4.20366C17.8455 4.93168 18.0007 5.71198 18.0007 6.5C18.0007 7.28802 17.8455 8.06832 17.5439 8.79634C17.2423 9.52435 16.8003 10.1858 16.243 10.743C16.1501 10.8359 16.0398 10.9096 15.9184 10.9599C15.797 11.0102 15.6669 11.0361 15.5355 11.0361C15.4041 11.0361 15.274 11.0102 15.1526 10.9599C15.0312 10.9096 14.9209 10.8359 14.828 10.743C14.7351 10.6501 14.6614 10.5398 14.6111 10.4184C14.5608 10.297 14.5349 10.1669 14.5349 10.0355C14.5349 9.9041 14.5608 9.774 14.6111 9.6526C14.6614 9.53121 14.7351 9.42091 14.828 9.328C15.5779 8.57789 15.9991 7.56066 15.9991 6.5C15.9991 5.43934 15.5779 4.42211 14.828 3.672C14.735 3.57913 14.6613 3.46884 14.6109 3.34744C14.5606 3.22604 14.5347 3.09592 14.5347 2.9645C14.5347 2.83308 14.5606 2.70296 14.6109 2.58156C14.6613 2.46016 14.735 2.34987 14.828 2.257ZM15.53 15.257C15.5945 15 15.7583 14.779 15.9856 14.6427C16.2128 14.5064 16.4849 14.4659 16.742 14.53C18.07 14.862 18.911 15.71 19.394 16.678C19.862 17.613 20 18.658 20 19.5C20 19.7652 19.8946 20.0196 19.7071 20.2071C19.5196 20.3946 19.2652 20.5 19 20.5C18.7348 20.5 18.4804 20.3946 18.2929 20.2071C18.1054 20.0196 18 19.7652 18 19.5C18 18.843 17.888 18.137 17.606 17.572C17.339 17.039 16.929 16.638 16.257 16.47C16 16.4055 15.779 16.2417 15.6427 16.0144C15.5064 15.7872 15.4659 15.5141 15.53 15.257ZM4.5 16.5C3.24 16.5 2 17.713 2 19.5C2 19.7652 1.89464 20.0196 1.70711 20.2071C1.51957 20.3946 1.26522 20.5 1 20.5C0.734784 20.5 0.48043 20.3946 0.292893 20.2071C0.105357 20.0196 0 19.7652 0 19.5C0 16.868 1.893 14.5 4.5 14.5H11.5C14.107 14.5 16 16.868 16 19.5C16 19.7652 15.8946 20.0196 15.7071 20.2071C15.5196 20.3946 15.2652 20.5 15 20.5C14.7348 20.5 14.4804 20.3946 14.2929 20.2071C14.1054 20.0196 14 19.7652 14 19.5C14 17.713 12.76 16.5 11.5 16.5H4.5Z" fill="#FF4F01"/>
</svg>
